<?xml version="1.0" encoding="UTF-8"?>
<svg id="Layer_1" data-name="Layer 1" xmlns="http://www.w3.org/2000/svg" version="1.1" viewBox="0 0 64 64">
  <g>
    <path d="M28.169,40.675l-9.093.017s-.602.002-.571.514h0s.013.403.543.425h8.711c-.038.133-.07.269-.096.407h0l-7.419.014s-.602.002-.571.514h0s.013.403.543.425h7.381c.006.127.018.252.034.375h0l-6.231.012s-.602.002-.571.514h0s.013.403.543.425h6.502c.609,1.574,2.137,2.691,3.926,2.691h0c1.789,0,3.317-1.117,3.926-2.691h6.428c.531-.022.543-.425.543-.425h0c.031-.513-.571-.514-.571-.514h0l-6.157-.012c.017-.124.029-.249.035-.376h7.306c.531-.022.544-.425.544-.425h0c.031-.512-.571-.514-.571-.514h0l-7.344-.014c-.025-.138-.057-.274-.096-.408h8.637c.531-.022.543-.425.543-.425h0c.031-.513-.571-.514-.571-.514h0l-9.019-.017c-.731-1.246-2.084-2.084-3.633-2.084h0c-1.55,0-2.902.838-3.633,2.084" fill="#4a525d"/>
    <path d="M7.738,28.711c-1.522.048-2.379,1.186-1.919,2.187h0c.459,1.001,1.868.991,1.868.991h0s2.992.032,3.037.032h0c.538,0,.633.329.579.458h0c-.121.242-.581.271-.581.271h0l-3.965.031-1.07,1.364h2.933s2.216.062,2.671-.069h0c1.743-.427,1.854-1.828,1.221-2.676h0c-.633-.848-1.933-.787-1.933-.787h0s-2.751.01-2.838.005h0c-.096.007-.24-.072-.19-.262h0c.044-.195.35-.175.35-.175h0l3.752-.005,1.056-1.371s-1.374-.016-2.771-.016h0c-.815,0-1.639.006-2.199.023" fill="#4a525d"/>
    <polygon points="17.322 28.704 14.799 30.555 14.799 28.711 13.154 28.711 13.14 28.711 13.14 34.045 14.813 34.045 14.813 32.248 17.336 34.038 19.825 34.038 16.075 31.398 19.79 28.704 17.322 28.704" fill="#4a525d"/>
    <polygon points="25.939 28.707 24.077 30.872 22.082 28.713 19.974 28.713 23.222 32.259 23.224 34.053 24.906 34.056 24.907 32.291 28.062 28.707 25.939 28.707" fill="#4a525d"/>
    <path d="M37.835,28.697h-8.776l-1.028,1.378-.005.007h2.158v3.983h1.721v-3.952h6.063c.498,0,.786.325.779.551h0c.024.199-.213.619-.74.619h0c-.679.007-4.934-.002-4.934-.002h0l.013,2.764h1.656v-1.332h2.304l1.609,1.332h2.335l-1.82-1.6s.4-.213.756-.54h0c.227-.209.443-.511.488-.816h0c.388-2.291-2.155-2.393-2.538-2.393h0c-.019,0-.032,0-.04,0" fill="#4a525d"/>
    <path d="M44.311,29.726l-3.083,4.325h.165s1.872.001,1.872.001l2.406-3.298,1.364,1.913h-2.221l-.981,1.392h6.232l-3.144-4.573s-.535-.788-1.244-.788h0c-.015-.001-.031-.002-.046-.002h0c-.682,0-1.322,1.03-1.322,1.03" fill="#4a525d"/>
    <polygon points="50.217 28.711 52.88 31.417 50.394 34.04 52.471 34.04 54.307 32.142 56.101 34.045 58.184 34.045 55.7 31.422 58.312 28.707 56.189 28.707 54.306 30.688 52.377 28.697 50.217 28.711" fill="#4a525d"/>
    <path d="M14.531,21.184c0,1.153.598,1.8,1.601,1.8,1.012,0,1.596-.642,1.596-1.8,0-1.177-.579-1.815-1.596-1.815s-1.601.642-1.601,1.815ZM15.032,21.159c0-.915.399-1.406,1.095-1.406s1.094.491,1.094,1.416c0,.92-.389,1.411-1.094,1.411-.701,0-1.095-.506-1.095-1.421Z" fill="#4a525d" stroke-width="0"/>
    <polygon points="18.796 22.926 19.264 22.926 19.264 21.335 20.752 21.335 20.752 20.916 19.264 20.916 19.264 19.841 20.835 19.841 20.835 19.423 18.796 19.423 18.796 22.926" fill="#4a525d" stroke-width="0"/>
    <polygon points="24.89 22.926 24.89 19.841 26.057 19.841 26.057 19.423 23.26 19.423 23.26 19.841 24.423 19.841 24.423 22.926 24.89 22.926" fill="#4a525d" stroke-width="0"/>
    <polygon points="27.394 22.926 27.394 21.335 29.116 21.335 29.116 22.926 29.583 22.926 29.583 19.423 29.116 19.423 29.116 20.916 27.394 20.916 27.394 19.423 26.917 19.423 26.917 22.926 27.394 22.926" fill="#4a525d" stroke-width="0"/>
    <polygon points="30.78 22.926 32.994 22.926 32.994 22.507 31.248 22.507 31.248 21.315 32.882 21.315 32.882 20.902 31.248 20.902 31.248 19.836 32.955 19.836 32.955 19.423 30.78 19.423 30.78 22.926" fill="#4a525d" stroke-width="0"/>
    <polygon points="37.285 22.926 37.285 21.544 38.593 19.423 38.058 19.423 37.076 21.13 36.064 19.423 35.485 19.423 36.818 21.544 36.818 22.926 37.285 22.926" fill="#4a525d" stroke-width="0"/>
    <polygon points="39.432 22.926 41.645 22.926 41.645 22.507 39.899 22.507 39.899 21.315 41.533 21.315 41.533 20.902 39.899 20.902 39.899 19.836 41.606 19.836 41.606 19.423 39.432 19.423 39.432 22.926" fill="#4a525d" stroke-width="0"/>
    <path d="M42.876,22.926l.389-.905h1.625l.35.905h.545l-1.406-3.503h-.501l-1.489,3.503h.487ZM44.745,21.622h-1.323l.681-1.727.642,1.727Z" fill="#4a525d" stroke-width="0"/>
    <path d="M46.617,22.926h.467v-1.581h.589c.438,0,.613.078.71.355.083.229.068.657.209,1.226h.501c-.151-.511-.156-.939-.219-1.236-.068-.306-.17-.447-.501-.525.409-.107.642-.414.642-.827,0-.603-.384-.915-1.163-.915h-1.236v3.503ZM47.771,20.916h-.686v-1.051h.686c.477,0,.744.068.744.521,0,.399-.238.531-.744.531Z" fill="#4a525d" stroke-width="0"/>
    <path d="M16.479,14.572l.863-2.414.784,2.414h-1.647ZM14.579,16.733h1.148l.443-1.227h2.256l.404,1.227h1.243l-1.987-5.699h-1.441l-2.066,5.699Z" fill="#4a525d" stroke-width="0"/>
    <rect x="21.286" y="11.034" width="1.211" height="5.699" fill="#4a525d" stroke-width="0"/>
    <path d="M24.224,16.733h1.195v-2.296h1.053c.641,0,.681.071.744.736l.079.863c.024.269.055.499.158.697h1.322c-.15-.214-.237-.53-.293-.958l-.103-.823c-.087-.704-.309-1.005-.966-1.076.776-.182,1.108-.602,1.108-1.409,0-.997-.625-1.433-1.931-1.433h-2.367v5.699ZM25.42,13.512v-1.599h.721c.815,0,1.179.119,1.179.815,0,.633-.356.784-1.179.784h-.721Z" fill="#4a525d" stroke-width="0"/>
    <polygon points="30.08 16.733 33.864 16.733 33.864 15.768 31.291 15.768 31.291 11.034 30.08 11.034 30.08 16.733" fill="#4a525d" stroke-width="0"/>
    <rect x="35.206" y="11.034" width="1.211" height="5.699" fill="#4a525d" stroke-width="0"/>
    <polygon points="38.145 16.733 39.237 16.733 39.237 12.016 41.454 16.733 43.14 16.733 43.14 11.034 42.047 11.034 42.047 15.617 39.902 11.034 38.145 11.034 38.145 16.733" fill="#4a525d" stroke-width="0"/>
    <polygon points="44.875 16.733 48.745 16.733 48.745 15.783 46.109 15.783 46.109 14.248 48.5 14.248 48.5 13.322 46.109 13.322 46.109 11.976 48.658 11.976 48.658 11.034 44.875 11.034 44.875 16.733" fill="#4a525d" stroke-width="0"/>
    <path d="M23.93,55.233h3.295v-.807h-2.201c1.415-1.162,2.174-1.921,2.174-2.769,0-.752-.588-1.264-1.545-1.264-.95,0-1.538.526-1.538,1.353v.055h.909c.014-.478.232-.725.642-.725.335,0,.561.246.561.561,0,.581-.841,1.292-2.297,2.597v.998Z" fill="#4a525d" stroke-width="0"/>
    <path d="M32.515,55.233h3.295v-.807h-2.201c1.415-1.162,2.174-1.921,2.174-2.769,0-.752-.588-1.264-1.545-1.264-.95,0-1.538.526-1.538,1.353v.055h.909c.014-.478.232-.725.642-.725.335,0,.561.246.561.561,0,.581-.841,1.292-2.297,2.597v.998Z" fill="#4a525d" stroke-width="0"/>
    <path d="M29.906,50.393c-1.094,0-1.661.834-1.661,2.454s.574,2.461,1.661,2.461c1.08,0,1.661-.841,1.661-2.461s-.574-2.454-1.661-2.454ZM30.549,52.847c0,1.162-.219,1.743-.643,1.743-.438,0-.643-.581-.643-1.743s.212-1.736.643-1.736c.424,0,.643.581.643,1.736Z" fill="#4a525d" stroke-width="0"/>
    <path d="M38.524,55.249h.961v-1.036h.597v-.789h-.597v-2.957h-1.036l-1.873,2.785v.96h1.948v1.036ZM37.317,53.424l1.207-1.839v1.839h-1.207Z" fill="#4a525d" fill-rule="evenodd" stroke-width="0"/>
  </g>
  <path d="M32,0C14.3,0,0,14.3,0,32c0,17.592,14.127,31.823,31.678,31.996.074,0,.148.004.222.004.017,0,.033,0,.05,0,.017,0,.033,0,.05,0,17.7,0,32-14.3,32-32S49.7,0,32,0ZM32,2.1c16.5,0,29.9,13.4,29.9,29.9s-13.4,29.9-29.9,29.9S2.1,48.5,2.1,32,15.5,2.1,32,2.1Z" fill="#4a525d" stroke-width="0"/>
</svg>