<?xml version="1.0" encoding="UTF-8"?>
<svg id="Layer_1" data-name="Layer 1" xmlns="http://www.w3.org/2000/svg" version="1.1" viewBox="0 0 64 64">
  <g>
    <path d="M24.115,6.406s1.485-.476,2.262-.406c.316.023.581.239.779.473.429.542.57,1.234.734,1.889.125.624.285,1.338-.066,1.917-.344.498-.964.666-1.524.785-.324.078-.649.157-.974.234-.008-.028-.025-.085-.033-.113-.382-1.596-1.178-4.778-1.178-4.778M25.04,6.807c.273,1.197.594,2.384.882,3.578l.025.14c.294-.072.59-.146.878-.239.342-.153.422-.572.401-.909-.042-.589-.164-1.173-.364-1.729-.095-.335-.261-.669-.527-.901-.401-.269-.875-.015-1.294.06" fill="#4a525d" stroke-width="0"/>
    <path d="M19.294,8.508c.24-.107.471-.233.707-.349.582,1.225,1.184,2.439,1.776,3.66.042.086.085.171.128.257.582-.277,1.163-.559,1.744-.841.114.224.288.626.288.626,0,0-1.625.795-2.447,1.175-.727-1.512-1.469-3.017-2.196-4.529" fill="#4a525d" stroke-width="0"/>
    <path d="M16.155,10.574c.251-.172.564-.294.872-.234.307.04.545.258.761.461.29.376.515.876.323,1.348-.049.077-.106.15-.16.224.231-.088.498-.164.734-.047.242.126.413.349.596.545.158.204.313.41.48.608.106.12.235.242.404.255l.092.014c-.246.225-.515.416-.761.606-.225-.248-.48-.551-.717-.832-.205-.246-.407-.55-.742-.624-.418.029-.704.38-1.037.594.437.578.862,1.166,1.317,1.73-.202.177-.427.326-.633.499-.522-.594-.932-1.273-1.424-1.89-.536-.714-1.094-1.411-1.617-2.135.511-.364,1.004-.753,1.511-1.123M16.08,11.369c-.163.112-.312.229-.426.319,0,0,.646.908.999,1.316.253-.208.538-.382.741-.644.131-.192.135-.422.035-.656-.128-.22-.312-.417-.527-.554-.284-.097-.572.048-.822.219" fill="#4a525d" stroke-width="0"/>
    <path d="M11.226,15.157c.287-.538.895-.96,1.525-.812.913.214,1.649.857,2.297,1.505.382.376.703.863.744,1.41-.013.549-.358,1.048-.8,1.352-.315.218-.718.238-1.082.16-.53-.135-.975-.468-1.405-.791-.577-.458-1.138-.985-1.418-1.683-.139-.38-.084-.805.139-1.14M11.76,15.449c-.16.273-.036.58.127.811.004.006.178.228.236.286.573.564,1.171,1.135,1.914,1.467.278.131.65.132.866-.115.239-.231.248-.603.085-.879-.185-.312-.463-.551-.716-.805-.512-.483-1.281-1.1-1.719-1.171-.239-.073-.683.102-.793.406" fill="#4a525d" stroke-width="0"/>
    <path d="M8.819,18.464c1.359.993,2.717,2.001,4.079,2.988l.056.039c-.113.282-.271.545-.365.834-1.045-.275-3.541-.934-3.714-.983,1.016.723,2.048,1.425,3.073,2.136l.061.043c-.117.281-.249.556-.361.839-1.663-.392-3.317-.819-4.977-1.223.011-.028.032-.082.042-.109.086-.217.188-.427.28-.641,1.29.349,2.575.721,3.867,1.062-.146-.109-.555-.382-.602-.425-.898-.615-1.804-1.219-2.691-1.851,0,0,.243-.518.357-.758,1.293.358,2.59.7,3.884,1.056-.125-.094-.255-.181-.389-.261-.955-.698-1.963-1.346-2.934-2.021,0,0,.229-.499.333-.725" fill="#4a525d" stroke-width="0"/>
    <path d="M33.726,5.281c.362.017.693.045,1.009.061.153.586.227,1.19.356,1.782.206,1.107.417,2.212.625,3.319-.289-.008-.58-.016-.85-.02-.077-.409-.123-.791-.194-1.226l-.007-.054c-.527-.028-.978-.054-1.482-.074-.114.394-.268.79-.381,1.185,0,0-.572-.031-.859-.058-.006-.016,1.201-3.294,1.783-4.915M34.134,5.983c.002.041-.738,2.407-.754,2.44.491.023.734.034,1.167.055-.076-.579-.338-2.114-.413-2.495" fill="#4a525d" stroke-width="0"/>
    <path d="M38.133,5.867c.243.061.547.134.792.188,0,0-.811,3.28-1.192,4.888-.25-.061-.814-.182-.814-.182.072-.282.876-3.54,1.214-4.893" fill="#4a525d" stroke-width="0"/>
    <path d="M50.32,12.169c.182.173.411.385.597.552,0,0-2.318,2.458-3.439,3.672-.188-.176-.62-.559-.62-.559.201-.21,2.502-2.653,3.461-3.665" fill="#4a525d" stroke-width="0"/>
    <path d="M46.529,9.264c.209.16.429.303.643.456-.8,1.095-1.582,2.202-2.374,3.303-.056.078-.11.156-.166.235.521.381,1.045.757,1.569,1.134-.143.207-.413.551-.413.551,0,0-1.473-1.052-2.198-1.593.984-1.359,1.955-2.727,2.938-4.086" fill="#4a525d" stroke-width="0"/>
    <path d="M42.981,7.455c.276.128.542.335.647.63.122.284.056.6-.008.89-.175.442-.49.89-.995.966-.092-.003-.183-.014-.274-.023.193.153.395.345.415.607.015.272-.089.533-.164.79-.095.24-.128.425-.213.67-.067.225-.1.61-.1.61-.118-.036-.758-.341-.758-.341,0,0-.01-.454.259-1.053.107-.302.262-.616.155-.941-.239-.344-.687-.412-1.04-.588-.274.67-.562,1.337-.815,2.016-.255-.084-.498-.201-.752-.29.245-.752.618-1.451.898-2.189.34-.825.655-1.661,1.009-2.481.575.254,1.161.479,1.738.726M42.26,7.797c-.179-.083-.356-.151-.492-.204,0,0-.451,1.02-.621,1.531.308.111.603.268.932.309.232.014.432-.1.583-.305.124-.223.199-.482.207-.736-.062-.293-.333-.467-.608-.595" fill="#4a525d" stroke-width="0"/>
    <path d="M48.761,17.606c1.331-1.017,2.672-2.019,4.007-3.03.066.088.435.562.57.745-.597,1.057-2.027,3.354-2.094,3.475.995-.748,1.989-1.499,2.99-2.24,0,0,.293.352.459.57-1.326,1.025-2.676,2.021-4.008,3.037-.171-.225-.636-.802-.636-.802,0,0,1.616-2.449,2.226-3.463-.134.094-2.167,1.655-3.071,2.313-.146-.202-.302-.397-.442-.604" fill="#4a525d" stroke-width="0"/>
    <path d="M51.644,21.739c1.518-.707,3.038-1.411,4.554-2.122.186.382,1.131,2.48,1.131,2.48,0,0-.402.176-.604.264-.243-.587-.528-1.156-.78-1.738-.431.172-.837.396-1.265.572.22.562.498,1.099.738,1.653-.205.095-.409.19-.612.288-.249-.545-.513-1.097-.756-1.645-.491.22-.955.446-1.461.672.262.608.563,1.2.841,1.801-.202.101-.405.198-.611.291-.075-.164-.15-.326-.226-.488-.319-.675-.639-1.348-.949-2.026" fill="#4a525d" stroke-width="0"/>
    <polygon points="19.194 20.018 20.298 23.568 21.299 23.568 21.471 23.055 22.255 20.718 23.158 23.568 24.198 23.568 25.356 20.018 24.567 20.018 23.71 22.853 22.758 20.018 21.797 20.018 20.85 22.853 20.017 20.018 19.194 20.018" fill="#4a525d" stroke-width="0"/>
    <rect x="25.899" y="20.018" width=".813" height="3.55" fill="#4a525d" stroke-width="0"/>
    <polygon points="27.716 23.568 28.461 23.568 28.461 20.876 30.157 23.568 31.295 23.568 31.295 20.018 30.546 20.018 30.546 22.75 28.821 20.018 27.716 20.018 27.716 23.568" fill="#4a525d" stroke-width="0"/>
    <polygon points="32.281 23.568 33.025 23.568 33.025 20.876 34.721 23.568 35.86 23.568 35.86 20.018 35.111 20.018 35.111 22.75 33.385 20.018 32.281 20.018 32.281 23.568" fill="#4a525d" stroke-width="0"/>
    <polygon points="36.856 23.568 39.754 23.568 39.754 23.016 37.635 23.016 37.635 21.976 39.518 21.976 39.518 21.433 37.635 21.433 37.635 20.556 39.685 20.556 39.685 20.018 36.856 20.018 36.856 23.568" fill="#4a525d" stroke-width="0"/>
    <path d="M42.889,23.568h.853c-.099-.128-.128-.311-.172-.533l-.094-.473c-.098-.498-.177-.7-.675-.73.567-.114.838-.385.838-.868,0-.34-.143-.606-.374-.754-.271-.172-.631-.192-1.129-.192h-1.696v3.55h.789v-1.508h.606c.537,0,.72.059.798.458l.114.577c.044.212.084.37.143.473ZM41.227,21.512v-.941h.592c.69,0,1.035.029,1.035.473,0,.424-.345.468-1.025.468h-.602Z" fill="#4a525d" stroke-width="0"/>
    <path d="M10.273,47.984l.504.6,2.826-1.402c.247-.119.656-.31,1.18-.661-.378.397-.674.734-.877,1.011l-1.89,2.529.495.59,4.564-2.193-.407-.485-3.382,1.726c-.243.124-.476.248-.691.385.212-.214.395-.42.542-.615l2.265-3.004-.438-.522-3.425,1.717c-.086.046-.309.162-.671.367.24-.255.411-.443.515-.584l2.301-3.025-.42-.501-2.992,4.067Z" fill="#4a525d" stroke-width="0"/>
    <path d="M17.817,54.854l.58.407,1.586-4.879-.636-.446-4.075,3.136.575.402.963-.781,1.423.996-.416,1.164ZM17.276,52.313l1.946-1.532-.796,2.337-1.15-.805Z" fill="#4a525d" stroke-width="0"/>
    <path d="M24.071,52.428l-1.202-.461-1.758,4.58.604.232.803-2.093.725.278c.407.157.459.402.288.884-.186.542-.405.998-.436,1.46l.623.239c.027-.318.106-.638.238-.982.051-.133.116-.284.185-.462.237-.617.188-.965-.312-1.222.599.055.987-.213,1.219-.817.298-.776-.016-1.269-.977-1.638ZM22.708,54.19l.581-1.514.681.261c.477.183.625.503.444.973-.225.585-.618.697-1.261.451l-.445-.171Z" fill="#4a525d" stroke-width="0"/>
    <path d="M27.726,57.924l.531-3.778.682.096c.519.073.794.229.889.675.026.107.017.567-.092,1.342-.112.796-.224,1.304-.416,1.545-.184.229-.466.279-.911.216l-.681-.096ZM27,58.386l1.167.164c.729.102,1.213.136,1.637-.341.31-.342.427-.931.545-1.775.15-1.066.231-1.743-.144-2.208-.299-.372-.735-.447-1.356-.535l-1.167-.164-.683,4.858Z" fill="#4a525d" stroke-width="0"/>
    <path d="M32.962,57.465c.005.054.002.103.006.15.078.896.599,1.302,1.543,1.22.957-.084,1.45-.626,1.375-1.481-.05-.57-.4-.82-1.06-1.173-.825-.441-1.313-.624-1.36-1.16-.032-.367.247-.692.702-.732.475-.041.743.209.789.731.003.034.006.068.009.102l.672-.059c-.004-.041-.007-.081-.011-.122-.072-.828-.594-1.241-1.477-1.164-.876.077-1.401.643-1.336,1.375.061.699.458.938,1.218,1.337.724.375,1.163.548,1.204,1.017.037.428-.274.776-.756.819-.509.045-.744-.216-.798-.833-.002-.027-.005-.061-.008-.088l-.713.062Z" fill="#4a525d" stroke-width="0"/>
    <path d="M43.548,56.352l2.25-1.196-.265-.499-1.612.857.257-1.912c.099-.771.051-1.355-.166-1.764-.31-.584-.893-.722-1.573-.36-.74.393-.951.969-.602,1.625.019.036.048.075.067.111l.583-.31c-.229-.488-.19-.779.171-.971.331-.176.653-.077.816.23.102.193.161.593.099,1.129l-.308,2.525.284.535Z" fill="#4a525d" stroke-width="0"/>
    <path d="M52.637,49.504l1.549-2.024-.449-.344-1.109,1.451-.562-1.845c-.23-.742-.517-1.253-.885-1.535-.525-.402-1.112-.285-1.58.327-.509.666-.462,1.277.128,1.728.032.025.074.048.107.073l.401-.525c-.411-.349-.497-.629-.249-.954.228-.298.562-.342.838-.131.173.132.394.472.559.985l.77,2.425.481.369Z" fill="#4a525d" stroke-width="0"/>
    <path d="M47.391,51.219c-.836-1.033-1.197-1.511-.652-1.953.54-.437.934.006,1.775,1.044.841,1.038,1.192,1.516.652,1.953-.545.441-.939-.011-1.775-1.044ZM46.41,48.848c-.36.292-.528.647-.511,1.036.027.487.425.98,1.022,1.716.596.736.995,1.229,1.466,1.355.377.098.756.002,1.116-.29.36-.292.533-.641.51-1.027-.023-.472-.395-.943-.944-1.62-.026-.032-.051-.064-.077-.095-.026-.032-.051-.064-.077-.095-.549-.678-.936-1.145-1.393-1.266-.372-.102-.75-.006-1.11.285Z" fill="#4a525d" stroke-width="0"/>
    <path d="M56.349,43.688l-1.038-.602-.732,1.261-.429-.249-2.009-2.499.484-.835,2.541,1.474.186-.321.448.324-.158.273,1.038.602-.331.572ZM53.979,42.313c-.4-.232-.793-.482-1.187-.722l-.004.007c.561.603,1.161,1.265,1.663,1.873l.384-.662-.856-.496Z" fill="#4a525d" stroke-width="0"/>
  </g>
  <g>
    <g>
      <path d="M28.169,40.675l-9.093.017s-.602.002-.571.514h0s.013.403.543.425h8.711c-.038.133-.07.269-.096.407h0l-7.419.014s-.602.002-.571.514h0s.013.403.543.425h7.381c.006.127.018.252.034.375h0l-6.231.012s-.602.002-.571.514h0s.013.403.543.425h6.502c.609,1.574,2.137,2.691,3.926,2.691h0c1.789,0,3.317-1.117,3.926-2.691h6.428c.531-.022.543-.425.543-.425h0c.031-.513-.571-.514-.571-.514h0l-6.157-.012c.017-.124.029-.249.035-.376h7.306c.531-.022.544-.425.544-.425h0c.031-.512-.571-.514-.571-.514h0l-7.344-.014c-.025-.138-.057-.274-.096-.408h8.637c.531-.022.543-.425.543-.425h0c.031-.513-.571-.514-.571-.514h0l-9.019-.017c-.731-1.246-2.084-2.084-3.633-2.084h0c-1.55,0-2.902.838-3.633,2.084" fill="#4a525d"/>
      <path d="M7.738,28.711c-1.522.048-2.379,1.186-1.919,2.187h0c.459,1.001,1.868.991,1.868.991h0s2.992.032,3.037.032h0c.538,0,.633.329.579.458h0c-.121.242-.581.271-.581.271h0l-3.965.031-1.07,1.364h2.933s2.216.062,2.671-.069h0c1.743-.427,1.854-1.828,1.221-2.676h0c-.633-.848-1.933-.787-1.933-.787h0s-2.751.01-2.838.005h0c-.096.007-.24-.072-.19-.262h0c.044-.195.35-.175.35-.175h0l3.752-.005,1.056-1.371s-1.374-.016-2.771-.016h0c-.815,0-1.639.006-2.199.023" fill="#4a525d"/>
      <path d="M7.9,44.654l.311.637,3.752-3.498-.341-.699-5.084.767.308.631,1.221-.216.762,1.562-.928.817ZM8.659,42.168l2.445-.397-1.83,1.658-.615-1.261Z" fill="#4a525d" stroke-width="0"/>
      <polygon points="17.322 28.704 14.799 30.555 14.799 28.711 13.154 28.711 13.14 28.711 13.14 34.045 14.813 34.045 14.813 32.248 17.336 34.038 19.825 34.038 16.075 31.398 19.79 28.704 17.322 28.704" fill="#4a525d"/>
      <polygon points="25.939 28.707 24.077 30.872 22.082 28.713 19.974 28.713 23.222 32.259 23.224 34.053 24.906 34.056 24.907 32.291 28.062 28.707 25.939 28.707" fill="#4a525d"/>
      <path d="M37.835,28.697h-8.776l-1.028,1.378-.005.007h2.158v3.983h1.721v-3.952h6.063c.498,0,.786.325.779.551h0c.024.199-.213.619-.74.619h0c-.679.007-4.934-.002-4.934-.002h0l.013,2.764h1.656v-1.332h2.304l1.609,1.332h2.335l-1.82-1.6s.4-.213.756-.54h0c.227-.209.443-.511.488-.816h0c.388-2.291-2.155-2.393-2.538-2.393h0c-.019,0-.032,0-.04,0" fill="#4a525d"/>
      <path d="M44.311,29.726l-3.083,4.325h.165s1.872.001,1.872.001l2.406-3.298,1.364,1.913h-2.221l-.981,1.392h6.232l-3.144-4.573s-.535-.788-1.244-.788h0c-.015-.001-.031-.002-.046-.002h0c-.682,0-1.322,1.03-1.322,1.03" fill="#4a525d"/>
      <polygon points="50.217 28.711 52.88 31.417 50.394 34.04 52.471 34.04 54.307 32.142 56.101 34.045 58.184 34.045 55.7 31.422 58.312 28.707 56.189 28.707 54.306 30.688 52.377 28.697 50.217 28.711" fill="#4a525d"/>
    </g>
    <path d="M32,0C14.3,0,0,14.3,0,32c0,17.592,14.127,31.823,31.678,31.996.074,0,.148.004.222.004.017,0,.033,0,.05,0,.017,0,.033,0,.05,0,17.7,0,32-14.3,32-32S49.7,0,32,0ZM32,2.1c16.5,0,29.9,13.4,29.9,29.9s-13.4,29.9-29.9,29.9S2.1,48.5,2.1,32,15.5,2.1,32,2.1Z" fill="#4a525d" stroke-width="0"/>
  </g>
</svg>